<svg xmlns="http://www.w3.org/2000/svg" width="512" height="512" viewBox="0 0 512 512">
  <circle cx="256" cy="256" r="256" fill="#410088"/>
  <g transform="translate(35.725 185.194)">
    <path d="M141.718,62.583a.56.56,0,0,0,.4.173.545.545,0,0,0,.383-.158c.427-.448,1.05-1.105,1.05-1.105a20.172,20.172,0,0,0-.669-26.964L116.913,7.191a10.083,10.083,0,1,0-14.62,13.889S137.382,58.039,141.718,62.583Z" transform="translate(57.451 0.73)" fill="#fff"/>
    <path d="M299.921,4.781a10.074,10.074,0,0,0-10.077,10.073v6.009a.556.556,0,0,1-.555.556,1.963,1.963,0,0,1-.674-.427A69.885,69.885,0,0,0,242.372,3.059a67.75,67.75,0,1,0,0,135.5,68.713,68.713,0,0,0,15.7-1.818c3.752-.884,13.456-4.4,17.811-9.522s4.342-13.8-1.411-19.554c-.252-.252-.465-.453-.628-.6a.546.546,0,0,0-.365-.139.609.609,0,0,0-.355.136,47.575,47.575,0,1,1-30.748-83.847c25.24,0,47.473,18,47.473,40.52V73.773l0,61.418a.555.555,0,0,0,.556.554h19.033a.553.553,0,0,0,.556-.554l0-120.337A10.073,10.073,0,0,0,299.921,4.781Z" transform="translate(111.235 0.017)" fill="#fff"/>
    <path d="M151.475,47.04a.561.561,0,0,0-.4-.173.543.543,0,0,0-.385.158c-.427.448-1.05,1.105-1.05,1.105a20.169,20.169,0,0,0,.669,26.964l25.97,27.336A10.082,10.082,0,1,0,190.9,88.544S155.81,51.585,151.475,47.04Z" transform="translate(89.885 31.399)" fill="#fff"/>
    <path d="M213.558,7.192,92.934,134.164l-.017.019-.009.009,0,.005a.542.542,0,0,0-.151.364.555.555,0,0,0,.556.556h26.526L228.178,21.08a10.083,10.083,0,1,0-14.62-13.889Z" transform="translate(52.607 0.73)" fill="#fff"/>
    <path d="M87.092,3.035a68.63,68.63,0,0,0-15.7,1.818c-3.752.884-13.456,4.4-17.811,9.522s-4.342,13.8,1.411,19.553c.252.252.465.453.628.6a.541.541,0,0,0,.366.141.622.622,0,0,0,.355-.137A47.557,47.557,0,1,1,39.481,70.805h0a47.2,47.2,0,0,1,9.49-28.366.654.654,0,0,0,.082-.421.791.791,0,0,0-.177-.3L33.707,30.177a.5.5,0,0,0-.35-.124.606.606,0,0,0-.451.223A67.684,67.684,0,1,0,87.092,3.035Z" transform="translate(0 0)" fill="#fff"/>
  </g>
</svg>
